<svg width="18" height="18" viewBox="0 0 18 18" fill="none" xmlns="http://www.w3.org/2000/svg">
<path d="M10.6875 3.375H3.9375C3.627 3.375 3.375 3.627 3.375 3.9375C3.375 4.248 3.627 4.5 3.9375 4.5H10.6875C10.998 4.5 11.25 4.248 11.25 3.9375C11.25 3.627 10.998 3.375 10.6875 3.375Z" fill="#066698"/>
<path d="M8.4375 5.625H3.9375C3.627 5.625 3.375 5.877 3.375 6.1875C3.375 6.498 3.627 6.75 3.9375 6.75H8.4375C8.748 6.75 9 6.498 9 6.1875C9 5.877 8.748 5.625 8.4375 5.625Z" fill="#066698"/>
<path d="M12.375 0H2.25C1.00912 0 0 1.00912 0 2.25V13.5C0 13.7183 0.126 13.9174 0.324 14.0096C0.399375 14.0445 0.4815 14.0625 0.5625 14.0625C0.691875 14.0625 0.820125 14.0175 0.9225 13.932L4.14112 11.25H12.375C13.6159 11.25 14.625 10.2409 14.625 9V2.25C14.625 1.00912 13.6159 0 12.375 0ZM13.5 9C13.5 9.61987 12.996 10.125 12.375 10.125H3.9375C3.80588 10.125 3.67875 10.1711 3.5775 10.2555L1.125 12.2996V2.25C1.125 1.63013 1.629 1.125 2.25 1.125H12.375C12.996 1.125 13.5 1.63013 13.5 2.25V9Z" fill="#066698"/>
<path d="M15.75 4.5C15.4395 4.5 15.1875 4.752 15.1875 5.0625C15.1875 5.373 15.4395 5.625 15.75 5.625C16.371 5.625 16.875 6.13013 16.875 6.75V16.2664L14.976 14.7476C14.877 14.6689 14.7521 14.625 14.625 14.625H6.75C6.129 14.625 5.625 14.1199 5.625 13.5V12.9375C5.625 12.627 5.373 12.375 5.0625 12.375C4.752 12.375 4.5 12.627 4.5 12.9375V13.5C4.5 14.7409 5.50912 15.75 6.75 15.75H14.427L17.0854 17.8774C17.1878 17.9584 17.3126 18 17.4375 18C17.5196 18 17.6029 17.982 17.6816 17.9449C17.8763 17.8504 18 17.6535 18 17.4375V6.75C18 5.50912 16.9909 4.5 15.75 4.5Z" fill="#066698"/>
</svg>
